<svg width="20" height="20" viewBox="0 0 20 20" fill="none" xmlns="http://www.w3.org/2000/svg">
<path d="M2.5 9.50587C2.5 10.8153 3.62167 11.8809 5 11.8809C5.66167 11.8809 6.26 11.6315 6.7075 11.2317L11.7 13.9424C11.685 14.0453 11.6667 14.1482 11.6667 14.2559C11.6667 15.5653 12.7883 16.6309 14.1667 16.6309C15.545 16.6309 16.6667 15.5653 16.6667 14.2559C16.6667 12.9465 15.545 11.8809 14.1667 11.8809C13.505 11.8809 12.9067 12.1302 12.4592 12.53L7.46667 9.82017C7.48167 9.71646 7.5 9.61354 7.5 9.50587C7.5 9.39821 7.48167 9.29529 7.46667 9.19158L12.4592 6.48171C12.9067 6.8815 13.505 7.13087 14.1667 7.13087C15.545 7.13087 16.6667 6.06529 16.6667 4.75587C16.6667 3.44646 15.545 2.38087 14.1667 2.38087C12.7883 2.38087 11.6667 3.44646 11.6667 4.75587C11.6667 4.86354 11.685 4.96646 11.7 5.07017L6.7075 7.78004C6.24667 7.36416 5.63561 7.13185 5 7.13087C3.62167 7.13087 2.5 8.19646 2.5 9.50587Z" fill="#3A3A3A"/>
</svg>
