<svg width="4" height="15" viewBox="0 0 4 15" fill="none" xmlns="http://www.w3.org/2000/svg">
<path d="M2.00012 8.3125C2.55241 8.3125 3.00012 7.94873 3.00012 7.5C3.00012 7.05127 2.55241 6.6875 2.00012 6.6875C1.44784 6.6875 1.00012 7.05127 1.00012 7.5C1.00012 7.94873 1.44784 8.3125 2.00012 8.3125Z" fill="#3A3A3A" stroke="#3A3A3A" stroke-linecap="round" stroke-linejoin="round"/>
<path d="M2 2.625C2.55228 2.625 3 2.26123 3 1.8125C3 1.36377 2.55228 1 2 1C1.44772 1 1 1.36377 1 1.8125C1 2.26123 1.44772 2.625 2 2.625Z" fill="#3A3A3A" stroke="#3A3A3A" stroke-linecap="round" stroke-linejoin="round"/>
<path d="M2.00012 14C2.55241 14 3.00012 13.6362 3.00012 13.1875C3.00012 12.7388 2.55241 12.375 2.00012 12.375C1.44784 12.375 1.00012 12.7388 1.00012 13.1875C1.00012 13.6362 1.44784 14 2.00012 14Z" fill="#3A3A3A" stroke="#3A3A3A" stroke-linecap="round" stroke-linejoin="round"/>
</svg>
