<svg width="11" height="12" viewBox="0 0 11 12" fill="none" xmlns="http://www.w3.org/2000/svg">
<path d="M9.65933 4.8275C9.65933 8.17149 5.35991 11.0378 5.35991 11.0378C5.35991 11.0378 1.06049 8.17149 1.06049 4.8275C1.06049 3.68722 1.51346 2.59365 2.31976 1.78735C3.12606 0.98105 4.21963 0.528076 5.35991 0.528076C6.50019 0.528076 7.59376 0.98105 8.40006 1.78735C9.20636 2.59365 9.65933 3.68722 9.65933 4.8275Z" stroke="#3A3A3A" stroke-linecap="round" stroke-linejoin="round"/>
<path d="M5.3599 6.26063C6.1514 6.26063 6.79304 5.61899 6.79304 4.82749C6.79304 4.03599 6.1514 3.39435 5.3599 3.39435C4.5684 3.39435 3.92676 4.03599 3.92676 4.82749C3.92676 5.61899 4.5684 6.26063 5.3599 6.26063Z" stroke="#3A3A3A" stroke-linecap="round" stroke-linejoin="round"/>
</svg>
