<svg width="15" height="21" viewBox="0 0 15 21" fill="none" xmlns="http://www.w3.org/2000/svg">
<path d="M7.5 1.60397C6.87011 1.60397 6.26602 1.8542 5.82062 2.29959C5.37522 2.74499 5.125 3.34908 5.125 3.97897V10.3123C5.125 10.9422 5.37522 11.5463 5.82062 11.9917C6.26602 12.4371 6.87011 12.6873 7.5 12.6873C8.12989 12.6873 8.73398 12.4371 9.17938 11.9917C9.62478 11.5463 9.875 10.9422 9.875 10.3123V3.97897C9.875 3.34908 9.62478 2.74499 9.17938 2.29959C8.73398 1.8542 8.12989 1.60397 7.5 1.60397V1.60397Z" stroke="#2A0082" stroke-width="2" stroke-linecap="round" stroke-linejoin="round"/>
<path d="M13.0416 8.72897V10.3123C13.0416 11.782 12.4578 13.1916 11.4185 14.2309C10.3793 15.2701 8.96972 15.854 7.49998 15.854C6.03024 15.854 4.62069 15.2701 3.58143 14.2309C2.54217 13.1916 1.95831 11.782 1.95831 10.3123V8.72897" stroke="#2A0082" stroke-width="2" stroke-linecap="round" stroke-linejoin="round"/>
<path d="M7.5 15.854V19.0206" stroke="#2A0082" stroke-width="2" stroke-linecap="round" stroke-linejoin="round"/>
<path d="M4.33331 19.0207H10.6666" stroke="#2A0082" stroke-width="2" stroke-linecap="round" stroke-linejoin="round"/>
</svg>
